<?xml version="1.0" ?><svg viewBox="0 0 200 200" xmlns="http://www.w3.org/2000/svg"><defs><style>.a{fill:#fee4a7;}.b{fill:#f5a9bd;}.c{fill:#86dad4;}</style></defs><path class="a" d="M179.15,76.383c.1,1.339.961,2.338,1.526,3.473,1.185,2.378,4.091,5.064,4.291,6.407.323,2.16-2.481.722-5.247-.141-.642-.2-.747-.126-.635.592a51.922,51.922,0,0,0,1.7,7.091,20.121,20.121,0,0,0,1.9,3.9c.485.867.154,1.537-.859,1.552a6.472,6.472,0,0,1-3.407-1.2,10.234,10.234,0,0,1-4.293-4.148c-1.811,7.663,2.133,7.921,1.306,9.2a.88.88,0,0,1-1.047.366c-.769-.2-1.535-.415-2.291-.658-1.412-.453-2.912-.464-4.328-.863-3.83-1.077-4.17-2.766-4.717-2.611-.051,3.162,1.712,4.351.883,5.067-.4.343-.787.04-1.152-.2-3.956-2.621-4.9-8.511-5.814-6.529s-1.321,2.919-2.159,2.512c-.409-.2-.377-.539-.259-.947a53.348,53.348,0,0,0,1.386-7.5,2.411,2.411,0,0,1,1.185-1.911,7.719,7.719,0,0,0,3.944-6.032,10.729,10.729,0,0,0,.031-3.719c-.25-.951-.848-1.261-1.715-.8-1.919,1.012-2.374,1.851-3.129,1.338a.871.871,0,0,1-.286-1c.324-1.692.234-3.459.909-5.086a.6.6,0,0,0-.136-.7c-6.716-7.655-6.535-7.4-7.46-8.612-.842.78-1.234.746-1.861-.2-.839-1.269-2.184-2.079-3.015-3.353-.122-.188-.269-.36-.459-.612-.267.335-.5.716-1,.628-.529-.091-.607-.535-.782-.915a31.82,31.82,0,0,0-3.362-5.717c-.606-.814-.768-.821-1.323.019A67.165,67.165,0,0,0,132.66,66.23a1.251,1.251,0,0,0,.023.9.524.524,0,0,1-.867.558c-.307-.294-.716-.564-.861-.931a18.68,18.68,0,0,1-1.771-6.789,15.164,15.164,0,0,1,2.278-8.511,5.619,5.619,0,0,0,.772-1.962,5.474,5.474,0,0,1,3.1-4.037,31.651,31.651,0,0,1,5.819-2.376c3.133-.775,6.325-.486,9.5-.518a29.163,29.163,0,0,1,5.147.535,5.011,5.011,0,0,1,2.363,1.315c4.7,4.088,6.925,1.261,13.686,6.506,5.974,4.635,6.671,8.859,8.229,12.621,1.651,3.985,3.162,8.028,4.885,11.984.247.567.342,1.2.542,1.788a1.059,1.059,0,0,1-.258,1.242c-.438.4-.869.113-1.265-.069a30.759,30.759,0,0,1-3.44-1.675,2.942,2.942,0,0,0-1.363-.451C179.058,76.275,179.065,76.263,179.15,76.383Zm-16.645-11.8c.517.513.946,1.012,1.563.335.208-.229.342.039.488.146.324.239.682.535,1.073.252.446-.322.423-.8.276-1.312a16.041,16.041,0,0,0-1.518-3.575c-.184-.322-.258-.721-.7-.771-.919-.1-.719,1.415-1.353.8-.915-.89-1.092-.865-1.561.332-.566,1.449-.973-.465-1.847-.072a.78.78,0,0,0-.417.938c.157.866.511,4.185,1.3,4.577.629.311,1.142-.71,1.815-.17.045.036.311-.128.413-.25A2.741,2.741,0,0,0,162.505,64.585Zm5.862-1.347c-.242-.985-.84-3.072-1.838-2.865a.691.691,0,0,0-.57.668,4.1,4.1,0,0,0,1.033,2.872C167.648,64.565,168.317,64.005,168.367,63.238Zm1.184-2.663c-.351-.534-.787-.523-1.111.03-.5.845.627,2.45,1.275,2.179C170.21,62.578,169.826,61,169.551,60.575Z"/><path class="a" d="M134.079,116.926c.888,0,.879.524.868,1.067a40.217,40.217,0,0,0,.706,4.954c.052.5.571.59.945.77,1.822.873,4.407,1.236,3.555,2.226-1.148,1.334-1.414,3.162-2.613,4.471a5.3,5.3,0,0,1-1.6,1.363,4.847,4.847,0,0,0-2.5,2.447,2.622,2.622,0,0,1-1.4,1.278c-1.335.656-1.36-1.487-2.066-1.956-.452-.3-.889.323-1.368.451a2.31,2.31,0,0,1-2.417-.644c-1.472-1.664-3.867-2.085-1.872-3.063.592-.29.836-.68.526-1.27-.217-.411-.012-.857-.245-1.287-.162-.3.282-.421.553-.473,3.6-.691,4.539.128,3.538-1.473-.359.7-.865.773-1.627.683a37.618,37.618,0,0,0-4-.07c-.286,0-.384.165-.474.395-.266.683-.558,1.356-.823,2.039-.993,2.562-2.236,1.031-3.852.594a1.9,1.9,0,0,1-1.565-2.11c0-1.319-.005-1.3-1.252-1.66-2.694-.781-2.092-2.353-2.412-2.6-1.029-.786-.487-1.468.077-2.218,1.867-2.484.244-4.22.329-7.188.021-.734.421-.967,1.053-.589a3.176,3.176,0,0,1,.919.747c.777,1.03,1.787,1.831,2.64,2.781a1.2,1.2,0,0,0,1.3.363,50.139,50.139,0,0,0,5.694-1.373c.8-.3,1.32.275,1.1,1.11-.732,2.781-1.751,3.172-1.1,3.913.912,1.044,1.813,2.1,2.876,3.332-.149-1.194.5-1.414,1.276-1.5.61-.064.9-.53,1.228-.96.541-.7.68-.614,1.044-1.463-2.161-.619-2.643.884-2.7.985-.251.409-1.271,1.5-1.855.127a2.414,2.414,0,0,1-.347-1.706,23.586,23.586,0,0,1,1.022-3.2c.36-.726.184-1.79-.637-1.809a19.869,19.869,0,0,0-3.82.662A1.319,1.319,0,0,1,121.7,115c-1.47-.919-2.6-1.1-4.064-2.037-.355-.228-.678-.423-.611-.913.061-.435.365-.591.742-.716,4.091-1.357,6.122.228,7.114-3.034.457-1.5,1.213-2.927,1.71-4.439.163-.5.348-1.095.987-1.158s.94.488,1.178.961a27.957,27.957,0,0,1,1.772,4.146c.5,1.6,1.4.261,5.937,1.437.982.255,1.189.89.519,1.672-1.544,1.8-2.969,2.346-2.348,3.775A1.554,1.554,0,0,1,134.079,116.926Z"/><path class="a" d="M71.725,131.47c-.351,2.016-3.042,1.267-3.9,1.337-6.958.57-27.4-.071-34.537.529a1.864,1.864,0,0,1-2-2.007c.064-.705.108-1.412.183-2.115.063-.595.411-1,1.012-.874,1.345.293,2.652-.115,3.979-.116.957,0,1.121-.316,32.44.045C70.959,128.293,72.488,127.088,71.725,131.47Z"/><path class="a" d="M40.928,122.279c-3.057.011-5.17.19-6.611.207-2.949.035-5-4.079-.5-4.255,33.85-1.327,33.316-.759,35.062-1.035.818-.129,1.238.256,1.336,1.051.317,2.568-.4,3.494-3,3.69C60.238,122.465,41.028,122.278,40.928,122.279Z"/><path class="a" d="M126.929,89.176a8.371,8.371,0,0,1-3.149,1.146c-.458.02-.929.095-1.064-.413-.365-1.36,2.807-.279,5.819-4.083.466-.588,1.266-.49,1.463.469.708,3.451-.845,6.892,3.337,8.73a32.22,32.22,0,0,0,7.932,2.167,2.214,2.214,0,0,1,1.656,1.059,28.2,28.2,0,0,1,3.151,5.829,1.737,1.737,0,0,1-.3,1.83c-.911,1.048-1.329,1.1-2.55.4-1.872-1.076-3.767-2.11-5.64-3.182-.491-.281-.927-.657-1.413-.947-.2-.116-.368-.475-.638-.261-.213.169.039.416.079.629.128.672.495,1.612-.408,1.811-1.186.262-.972-1.793-2.563-4.491-.3-.512-.508-.74-1.094-.4-1.989,1.155-3.672.163-5.293.98A.843.843,0,0,1,125,99.986c-.275-.626.2-.932.642-1.09,1.286-.458,1.722-1.549,2.157-2.672.189-.489-.007-.658-.452-.56-1.2.264-2.441.066-3.625.405-.53.151-1,.094-1.2-.463-.188-.533.225-.765.62-1.057a10.133,10.133,0,0,0,3.749-4.817A2.69,2.69,0,0,0,126.929,89.176Z"/><path class="a" d="M136.577,117.934c.312-.941.975-.721,2.66-1.388a2.172,2.172,0,0,0,1.185-1.12c.559-1.049,1.2-2.054,1.826-3.066.221-.358.445-.764.991-.625a.986.986,0,0,1,.695,1.063,9.968,9.968,0,0,0,.8,3.027,1.519,1.519,0,0,0,.953,1c.633.247,1.26.512,1.9.731,3.043,1.037-.516,2.258-4.441,6.346-.573.6-1.5,1.133-2.233.544a17.706,17.706,0,0,0-2.771-1.605C136.48,121.855,136.221,119.006,136.577,117.934Z"/><path class="a" d="M105.918,26.421a1.8,1.8,0,0,1-2.2-.664,1.208,1.208,0,0,1-.154-1.319c2.2-5.879.8-3.04,4.487-12.091a.991.991,0,0,1,1.451-.6c2.911,1.234,3.8,1.876,5.036,1.989.695.063.912.652.524,1.253-2.353,3.639-4.717,7.269-7.405,10.674C106.867,26.669,106.5,26.257,105.918,26.421Z"/><path class="a" d="M109.817,103.5c-1.21-.045-.533-1.018-2.01-2.461-1.688-1.648-2.717-.03-3.3-.942a.632.632,0,0,1,.189-.841c.939-.847.779-1.986.782-3.045,0-.476-.144-.952.381-1.155.571-.22.762.232.968.677a4.431,4.431,0,0,0,.7.956,1.39,1.39,0,0,0,1.937.474.713.713,0,0,1,.973.978,5.751,5.751,0,0,0-.185,4.141A.98.98,0,0,1,109.817,103.5Zm-3.2-5.791c-.023.493-.646.916.02,1.2s1.3.593,1.9.89c.381-.686.256-1.086-.517-1.187A2.845,2.845,0,0,1,106.618,97.71Z"/><path class="a" d="M118.21,103.655c.254-1.07.554-2.392.889-3.7a.691.691,0,0,1,.777-.525c.9.048.458,1.417,1.075,2.117a1.4,1.4,0,0,0,1.125.625c2,0-.086,2.141.524,4.327.115.415-.209.7-.55.864-.558.269-.953-.623-1.215-1.182-.383-.817-.851-1.438-1.924-1.308C118.3,104.941,118.186,104.711,118.21,103.655Zm3.046-.014c-.223-.354-.743-.4-1.035-.738-.153-.179-.354-.331-.543-.039-.175.271-.1.522.208.592a2.956,2.956,0,0,1,1.069.462C121.157,104.06,121.261,103.937,121.256,103.641Z"/><path class="a" d="M103.333,116.428c-.7,1.387.729,2.887.835,3.5.063.359.155.777-.3.957a.762.762,0,0,1-.95-.359c-.93-1.287-1.332-1.42-2.854-.933-.392.126-.767.26-1.11-.081-.384-.382-.07-.7.072-1.066a4.379,4.379,0,0,0-.082-3.075c-.141-.406-.411-.841.035-1.157,1.114-.789,1.457,2.006,3.726,1.446C103.158,115.552,103.37,115.887,103.333,116.428Zm-2.31,1.605c.364-.039.8.141.8-.483,0-.721-.595-.6-.96-.674-.6-.123-.453.5-.5.768C100.247,118.256,100.8,117.924,101.023,118.033Z"/><path class="b" d="M146.441,173.55c4.408.024,22-.7,32.729-1.86a5.369,5.369,0,0,1,4.144.874c1.743,1.413,3.594,5.695,4.408,7.8.906,2.348,3.909,5.488,2.891,12.83a1.018,1.018,0,0,1-.862.828c-8.262,2.3-23.338-.059-26.041-.3-2.035-.179-4.091-.1-6.129-.256-.1-.007-27.689.1-27.791.122a4.872,4.872,0,0,1-2.194-.067c-2.7-.722.405-2.393,5.2-11.627.905-1.741,1.9-3.432,2.82-5.162a5.483,5.483,0,0,1,4.385-2.853A41.059,41.059,0,0,1,146.441,173.55Z"/><path class="b" d="M122.528,146.867c-1.34,1.719-2.593,3.33-3.851,4.939-.2.258-.077.456.062.691,1.43,2.42,2.842,4.851,4.507,7.124.271.371.892.856.313,1.307s-.945-.173-1.264-.6a62.386,62.386,0,0,1-4.191-6.511c-.7-1.246-.849.213-2.053.8-.222.108-.432.167-.615-.051s-.072-.42.083-.606c1.6-1.918,1.577-1.773.773-3.03-2.739-4.287-2.621-5.65-3.464-4.586a1.054,1.054,0,0,1-.346.243c-.292.151-.609.44-.9.053-.271-.358-.017-.586.251-.847.976-.952.975-.97.323-2.18-1.728-3.2-1.953-3.157-1.637-3.426.707-.6,2.124,2.069,2.555,2.832.611,1.082.64.346,3.966-3.175.462-.489.222-.426-1.872-3.424-.281-.4-.628-1.1-.163-1.257.232-.079.337.131.465.287.721.877,1.488,1.719,2.161,2.631.652.883.532.285,4.164-3.519a.755.755,0,0,0,.071-1.174q-.763-.915-1.5-1.849c-.2-.245-.645-.481-.3-.839s.629.105.853.282a7.675,7.675,0,0,1,1.526,1.6c.3.436.615.634,1.07.122.754-.85,1.7.157.858.862-.874.727-.247.805,2.7,4.63.485.628.479.125,1.684-1.4.228-.288.511-.658.914-.421.453.266.247.734.064,1.066-1.109,2.018-1.68,1.99-1.141,2.739,1.295,1.8,2.826,3.411,4.186,5.158.307.394.522.4.818-.043q1.455-2.205,2.977-4.365a.96.96,0,0,0-.084-1.3c-.4-.528-2.336-3.141-2.6-3.585-.138-.232-.25-.5,0-.69.232-.173.413.063.58.213a31.589,31.589,0,0,1,2.734,3.262c.27.363.489.395.765-.013q2.484-3.669,5-7.319c.638-.921-.5-1.4-2.262-4.2-.126-.2-.213-.442,0-.621.246-.2.493-.082.674.126.726.836,1.486,1.648,2.145,2.535.407.547.58.52.946-.023,4.124-6.116,4-4.905,3.142-6.4-.22-.383-.667-.846-.214-1.2s.661.29.882.556c.483.578.827.421,1.208-.085q1.615-2.142,3.253-4.267c.816-1.061-.433-1.24.105-1.775a.479.479,0,0,1,.693-.022c.285.234.468.2.7-.095a38.926,38.926,0,0,1,2.9-3.674c.3-.308.061-.488-.118-.714-2-2.516-3.211-2.833-2.664-3.4.279-.288.616-.053.91.157a14.537,14.537,0,0,1,2.411,2.284c1.023,1.158,1.094-.569,3.817-3.056.331-.3.24-.536-.064-.754-1.2-.86-1.47-.855-1.351-1.251.061-.2.243-.2.414-.225,1.371-.173,1.776,1.691,2.643.6.3-.378.75-.644,1.173-.239.386.369.179.8-.18,1.1-.8.69.543.751,1.511,1.838.225.254.552.512.262.873-.273.34-.617.175-.912-.033-2.659-1.869-1.52-1.924-5.367,2.463-.227.258-.2.409.029.631q2.484,2.467,4.949,4.952c.322.325.511.315.786-.081.762-1.095,1.58-2.151,2.36-3.233.3-.421.678-.675,1.151-.374.519.331.436.8.111,1.256-.8,1.107-1.575,2.225-2.388,3.318a.69.69,0,0,0,.024,1.029c1.4,1.66,3.163,2.937,4.689,4.462.383.383.535-.111.831-.5s.7-.691,1.158-.359c.413.3.247.77.056,1.166-.567,1.178-.561,1.164.5,1.988.784.61,1.545,1.25,2.306,1.888.347.291.641.68.316,1.1-.362.471-.843.231-1.212-.048-3.3-2.488-3.243-2.94-3.782-2.116-3.541,5.421-4.054,5.265-3.311,6.035q2.4,2.484,4.761,5.007c.446.479.6.137.815-.19,1.079-1.671,2.153-3.345,3.243-5.008.283-.431.553-1.137,1.2-.774.722.4.307,1.076,0,1.564-3.614,5.848-4.081,5.707-3.269,6.559,1.8,1.891,3.543,3.843,5.331,5.749.372.4.52.92.973,1.3.405.342-.017.965-.223,1.416a56.373,56.373,0,0,1-4.511,7.721.806.806,0,0,0,.055,1.121c1.578,2.008,3.107,4.055,4.646,6.093.215.285.563.616.2.968-.4.386-.758.022-1.03-.237a46.484,46.484,0,0,1-3.925-4.707c-1.206-1.5-1.157-1.529-2.229.04-1.025,1.5-2.051,3-3.108,4.482-.622.871-.067.939.983,2.593.159.249.414.583.064.829a.72.72,0,0,1-.941-.125c-.845-.856-1.195-1.845-1.74-.942a1.13,1.13,0,0,1-.543.521c-.824.322-.8-.632-.487-.969.774-.823.44-1.462-.182-2.235-1.458-1.812-2.821-3.7-4.2-5.575-.847-1.146-.27,0-4.91,6.326a.658.658,0,0,0,.012.964c.447.513.845,1.069,1.281,1.592.26.313.433.651.112.979s-.672.184-.965-.117a7.9,7.9,0,0,1-1.186-1.337c-.26-.426-.548-.438-.855-.033q-.516.678-1.052,1.34c-.3.373-.69.559-1.11.239-.527-.4-.217-.56,1.338-2.647a.691.691,0,0,0-.005-.981c-1.544-1.928-3.33-3.654-4.742-5.691-.834-1.2-1.11,1.309-4.905,5.725-.262.306-.137.487.083.718.648.678,1.28,1.37,1.922,2.054.247.262.476.525.159.88-.341.382-.7.21-.969-.056-.606-.6-1.2-1.217-1.743-1.869-.392-.467-.678-.392-1,.037-.463.615-2.023,2.411-2.591,1.892-.355-.325.091-.543.254-.757,1.766-2.319,2.229-2.338,1.682-3.085-1.111-1.515-2.449-2.838-3.6-4.319-.292-.377-.42-.139-.615.118-1.356,1.794-2.441,3.768-3.735,5.6-1.276,1.809-1.368,1.934-1.668,1.764-.682-.385,1.012-2.788,1.419-3.452a54.314,54.314,0,0,1,3.211-4.923c.7-.907-1.514-1.633-.525-2.925.274-.357.03-.409-5.706-7.729-.191-.244-.364-.466-.616-.032q-1.514,2.621-3.053,5.224a.762.762,0,0,0,.065,1c1.168,1.391,2.188,2.9,3.432,4.23.3.322.66.655.215,1.079-.872.831-2.51-1.753-3.453-2.9-1.512-1.832-1.107-1.816-3.5,2.584-.221.407-.559.769-1.015.506s-.063-.656.083-.956c.683-1.407,1.374-2.811,2.092-4.2a.9.9,0,0,0-.07-1.1C126.005,151.769,124.282,149.372,122.528,146.867Zm27.277-6.909c-.625-1.164.978,1.6-5.241-7.254-.547-.779-.317-.329-5.634,7.057a.935.935,0,0,0,.1,1.385c5.341,5.794,5.237,7.483,6.021,6.331,1.534-2.255,3.068-4.509,4.487-6.839A1.025,1.025,0,0,0,149.805,139.958Zm6.483,8.42c.07-.669-.255-.235-4.942-6.525-.38-.511-.63-.47-.982.076q-1.751,2.719-3.589,5.381c-1.153,1.673-1.173,1.659.08,3.278.017.022.027.051.045.072,3.918,4.277,4.153,6.341,5.09,4.767C153.833,152.329,154.966,150.76,156.288,148.378Zm17.357-7.253c-.354.015.015-.3-4.056,6.367-.32.524-.36.048,4.918,7.345.8,1.108.752,1.1,1.5-.057,1.27-1.957,2.259-4.071,3.462-6.06.458-.757.584-1.135-.182-1.844C177.06,144.815,174.919,142.3,173.645,141.125Zm-10.986,15.267c-.895-1.426-1.259-1.666-4.977-6.578-.638-.844-.323-.027-4.851,6.627a1.065,1.065,0,0,0,.074,1.512c1.439,1.94,3.159,3.644,4.6,5.574.38.507.561.345.85-.073A61.324,61.324,0,0,0,162.659,156.392Zm6.02-7.068c-.289.042-.326.268-.418.431-1.161,2.081-2.268,4.194-3.575,6.189-.431.658-.387.251,4.8,7.441.6.833.441.277,4.617-5.8a.7.7,0,0,0-.052-.96C168.062,148.4,169.337,150.025,168.679,149.324Zm-28.9,7.516c1.155,1.924,1.013.929,2.065-.371.176-.218.4-.457.724-.276a.589.589,0,0,1,.18.831c-.847,1.812-1.361,1.8-.83,2.431,1.208,1.432,2.619,2.682,3.727,4.2.282.386.484.3.777-.055,1.515-1.853,2.664-3.953,4.034-5.9.4-.563.365-.115-5.247-7.056-.315-.39-.466-.276-.675.056-1.041,1.659-2.206,3.255-3.08,5A1.728,1.728,0,0,1,139.776,156.84Zm14.97-24.327c-.575-1.052-1.333-1.37-5.292-6.993-.232-.33-.385-.242-.567.015q-1.845,2.607-3.692,5.211a.634.634,0,0,0-.008.849q2.534,3.368,5.054,6.744c.307.411.513.4.809-.054C154.714,132.645,154.78,132.928,154.746,132.513Zm8.763,22.591c1.531-2.235,2.665-4.586,3.969-6.836.25-.432.321-.066-4.972-6.515-.582-.71-.864.125-1.114.381-.7.721-.531,1.811-1.139,2.6-.69.9-1.227,1.907-1.866,2.844a.751.751,0,0,0,.059,1.055C159.335,149.713,160.252,150.909,163.509,155.1Zm-7.687-21.393c-1.3,1.939-2.526,3.812-3.814,5.638a.942.942,0,0,0,.075,1.336c1.573,1.936,3.142,3.874,4.684,5.835.337.429.431.3.707-.06,1.322-1.734,1.544-3.015,3.489-5.976C161.42,139.787,160.4,139.658,155.822,133.711Zm-17.888,7.925c-.322,0-.385.257-.508.435-.919,1.331-1.8,2.689-2.765,3.986a1.2,1.2,0,0,0,.056,1.713c1.749,2.195,3.461,4.42,5.17,6.646.8,1.04.4.091,3.757-4.773a.678.678,0,0,0-.06-.916C137.231,140.72,138.5,142.172,137.934,141.636ZM154,118.759c-.422.444-2.132,2.76-3.933,5.051-.258.328-.171.5.044.794,1.626,2.181,3.35,4.282,5.076,6.382.307.374.544.436.846,0,3.793-5.478,3.822-5.123,3.43-5.606C153.907,118.525,154.325,118.773,154,118.759Zm13,15.2c-.413.133-.235.215-3.849,5.619a.621.621,0,0,0,.088.888q2.41,2.868,4.789,5.764c.579.706.344.419,4.252-5.961a.548.548,0,0,0-.077-.8C169.584,136.7,167.736,134.661,167,133.962Zm-38.1,19.231c1.063-1.829,2.043-3.621,3.137-5.34.852-1.339-.481-1.374-4.237-6.673-.258-.364-.377-.434-.725-.045-1.233,1.377-2.254,2.915-3.42,4.341a.562.562,0,0,0-.007.771C125.335,148.551,126.929,150.93,128.894,153.193Zm36.965-20.361c-.078-.459-2.194-2.385-4.549-5.193-.938-1.118-.724-.438-4.222,4.3a.944.944,0,0,0,.045,1.358c1.483,1.716,2.97,3.43,4.428,5.167.333.4.487.432.777-.036C163.876,135.941,165.473,133.526,165.859,132.832Zm-7.424-19.554c-1.5,1.275-2.125,2.64-3.386,4.068a.54.54,0,0,0,.041.769q2.5,3.011,4.987,6.024c.277.337.483.407.769-.009q1.517-2.208,3.079-4.385a.692.692,0,0,0-.053-1.04C158.53,113.234,158.8,113.318,158.435,113.278Zm12.22,12.339c-.006-.645,0-.033-4.833-4.959-.28-.286-.484-.3-.737.064q-1.622,2.343-3.291,4.653a.6.6,0,0,0,.068.884c1.391,1.651,2.868,3.219,4.386,4.752.384.388.62.383.92-.068C171.161,124.95,170.224,126.531,170.655,125.617Zm-48.9,20.26c-.094-.236.357.417-3.473-5.1-.15-.216-.326-.195-.489,0-1.068,1.254-2.321,2.34-3.306,3.668a.722.722,0,0,0-.123.866c1.043,1.758,2.091,3.512,3.117,5.279.263.453.43.4.713.017C120.587,147.408,121.4,146.464,121.758,145.877Zm4.851-6.23c-.213-.387.306.3-3.2-4.33a.367.367,0,0,0-.64-.036q-1.811,1.978-3.616,3.961a.567.567,0,0,0-.045.826c1.036,1.386,2.045,2.791,3.051,4.2.348.488.654.457.974-.01C124.521,142.241,126.091,140.463,126.609,139.647Z"/><path class="b" d="M63.815,87.281c-3.534,1.675-6.657.291-10.877.041-4.016-.238-2.826-.951-7.141-.362-2.314.316-6.729-1.758-4.306-5.2,1.7-2.415,3.527-4.739,5.161-7.195a19.366,19.366,0,0,1,2.811-3.5c1.265-1.188,3.451.112,5.715.229,1.3.067,2.6.328,3.894.272a4.424,4.424,0,0,1,4.581,2.965,27.008,27.008,0,0,1,2.435,8.194C66.518,86.7,64.955,86.741,63.815,87.281Z"/><path class="b" d="M43.989,63.832c-.1.441-.165.891-.3,1.317s-.091.708.367.872c.175.062.41.156.355.409-.058.269-.334.248-.491.186-.554-.217-.689.5-1.079.475-.528-.039-.085-.712-.523-.937-.848-.433-1.359-.281-1.609.62-.136.49-.613,1.024.079,1.483.024.016.017.144,0,.152-.553.214-.7.784-1.047,1.162-.294.317-.383-.053-.419-.328-.037-.294.165-.616-.136-.882-.493-.437-.957-.315-1.219.34-.115.285-.2.674-.607.548-.338-.1-.206-.468-.244-.742-.145-1.035.63-1.711.96-2.558a.434.434,0,0,1,.609-.3c.3.123.3.372.187.645a3.126,3.126,0,0,1-.17.48c-.3.456-.157.646.332.84.7.28.661-.21.8-.657.219-.7.666-1.45-.5-1.908a1.239,1.239,0,0,0,1.418-1.172.353.353,0,0,1,.528-.265c.254.123.231.345.174.589-.091.39-.5.822.249,1.084.86.3,1.018.231,1.262-.671.209-.774.341-1.441-.751-1.566-.507-.058-.278-.685.154-.5,1.112.464,1.135-.372,1.37-1.061.144-.419.058-1.29.757-1.067.645.206.172.9.04,1.342-.373,1.268-.36,1.3.5,1.679,1,.44.642-.785,1.188-2.244.245-.655-.012-.947-.574-1.151-.294-.106-.815-.1-.61-.59.144-.342.557-.178.829-.031.613.33.886.234,1.018-.521.09-.506.237-1.455.763-1.329.567.136.065.948-.012,1.428-.11.684-.418,1.276.54,1.636.91.342.586-.073,1.052-.8a1.049,1.049,0,0,0-.436-1.72c-.239-.125-.666-.3-.5-.571.436-.689,1.394,1.454,1.926-.188a7.41,7.41,0,0,1,.483-1c.113-.224.285-.384.545-.278.3.122.192.366.11.577-.206.529-.4,1.065-.637,1.579-.192.413-.024.658.375.89.528.308,1.119,1.183,1.5.917a7.268,7.268,0,0,0,1.626-2.136c.166-.26-.218-.415-.39-.565-.354-.309-.807-.515-1-1.015.367-.154.563.1.773.253.84.6,1.689,1.192,2.489,1.844.395.322.628.4.923-.09.129-.216.405-.514.68-.267.216.194.005.48-.168.673-.624.7.2.84.471,1.155.3.34.631.4.905-.105.332-.615.917-1.056,1.119-1.781.141-.51.558-.184.71,0,1.031,1.267,1.648.812,2.45,2.077.255.4.783.836,1.227.039.2-.362.783-.007.382.387-.59.579-.044.86.287,1.228.464.517.667.016.943-.21.157-.13.336-.3.516-.114.159.159-.034.314-.14.425-.532.556-.281.916.272,1.236.616.356,1.176,1.255,1.616.366a.31.31,0,0,1,.5-.142c.155.133.02.3-.019.464-.064.268-.615.5-.072.829.376.224.708.77,1.182.117a.283.283,0,0,1,.449-.038c.234.263-.748.783-.049,1.22.406.254.648.95,1.319.5a.338.338,0,0,1,.393-.051c.171.116.054.259-.018.366-.319.474-.026.53,1.6,2.175.184.186.385.425.17.666-.251.283-.462,0-.64-.162q-.7-.621-1.373-1.274c-.3-.292-.58-.278-.718.1-.118.329-.736.618-.123,1.067.48.351.917.761,1.366,1.153.155.135.291.325.137.517-.209.259-.4.014-1.209-.57-.516-.372-1.046-1.051-1.48.095a.333.333,0,0,1-.5.175c-.228-.152-.089-.371,0-.535.335-.643.309-1.137-.422-1.514-.634-.327-.418-.085-.8.626-.1.182-.234.355-.47.253s-.167-.342-.14-.525c.107-.735.9-.862-.179-1.615-.6-.416-.538.144-1.116,1.074-.111.179-.247.481-.5.331-.2-.12-.111-.411-.044-.631.193-.637.786-1.038.52-1.537-.234-.438-.813-.682-1.21-1.045-.646-.591-.7.128-1,.581-.161.239-.2.767-.557.612-.381-.163-.218-.633-.04-1.053.464-1.093.464-1.093-.6-1.7-3.642,5.856-3.236,6.7-3.836,6.441-.438-.19-.039-.693.1-1.038a1.3,1.3,0,0,0-.992-1.465c-.21,0-.252.191-.333.335-.322.568-.674,1.121-.961,1.707-.227.465-.51.462-.887.233-.34-.207-.692-.4-1.021-.617-.385-.26-.741-.595-1.121.016-.157.253-.727.1-.542-.436.341-.985-.631-.945-1.053-1.2-.478-.3-.461.4-.663.644-.374.46-.023,1.139-.709.831a13.19,13.19,0,0,1-2.245-1.216c-.184-.13-.422-.318-.282-.553.185-.31.393,0,.568.085.281.132.539.312.808.47.948.557,1.288.44,1.534-.656.15-.669-.608-.677-.929-1.008-.689-.708-.761.964-1.384.5-.523-.39.647-.95.134-1.319a3.729,3.729,0,0,0-2.109-.81c-.5-.013-.5.323-.563.675-.055.325-.119.773-.59.652-.42-.109-.236-.518-.186-.8C45.551,64.314,45.559,64.315,43.989,63.832Zm14.707.742c.6-.1.76-1.02,1.342-1.774.346-.448.187-.666-.207-.939-1.04-.723-1.069-.729-1.721.341a6.633,6.633,0,0,0-.394.654c-.121.267-.569.535-.336.782A7.448,7.448,0,0,0,58.7,64.574Zm-2.519-5.138c-.013-.1,0-.179-.031-.2a5.055,5.055,0,0,0-1.141-.862c-.4-.162-.48.37-.668.614-.294.38-.536.8-.807,1.2-.146.215-.351.467-.058.66.412.272.974.949,1.231.71A10.854,10.854,0,0,0,56.177,59.436Zm.688,8.626c.295-.438.214-.738-.221-1.053-1.029-.744-1.015-.763-1.69.33a.854.854,0,0,0-.158.3c-.05.373-.834.647-.164,1.115C56.239,69.873,55.767,69.7,56.865,68.062ZM51.474,66.77a17.541,17.541,0,0,0,1.132-1.759c.274-.418.2-.677-.229-.955-.958-.624-1.024-.631-1.6.329-.116.193-.231.388-.332.589-.143.283-.563.57-.268.882A7.847,7.847,0,0,0,51.474,66.77Zm6.632-5.838c-.464-1.027-1.222-1.368-1.932-.3-.851,1.281-1.095,1.5-.719,1.711.4.221.8.936,1.174.609A10.59,10.59,0,0,0,58.106,60.932ZM54.992,65.85c-.614-.949-1.448-1.116-2.052-.1-.186.315-.365.636-.527.964-.095.192-.454.389-.068.618s.87.874,1.2.573A10.713,10.713,0,0,0,54.992,65.85Zm-4.7-6.543c-.7,1.669-.869,1.875-.63,2.19a1.243,1.243,0,0,0,2.222-.032,3.532,3.532,0,0,1,.228-.356c.224-.267.133-.431-.132-.608C51.44,60.143,50.921,59.756,50.29,59.307Zm.33,3.923c-.044-.137-.045-.252-.1-.286a3.866,3.866,0,0,0-1.222-.7c-.385-.07-.365.48-.49.77-.189.438-.323.9-.515,1.336-.136.308.062.41.256.521C49.43,65.378,48.971,65.8,50.62,63.23Zm10.022-1.568a10.179,10.179,0,0,0,.909-1.224c.345-.4.242-.649-.113-.974-.9-.818-.882-.834-1.569.178a2.748,2.748,0,0,0-.238.348c-.119.258-.551.493-.239.8A9.074,9.074,0,0,0,60.642,61.662Zm1.378,2.005c-.152-.5-.617-.658-.965-.892s-.349.128-1.424,1.9c-.124.2-.173.4.1.453.425.081.694.889,1.1.481A9.553,9.553,0,0,0,62.02,63.667Zm4.629,2.262a1.911,1.911,0,0,0,.62-1.028c.128-.915-.84-.988-1.312-1.449-.157-.152-.385-.356-.558-.054-.218.383-.584.709-.588,1.185A4.686,4.686,0,0,0,66.649,65.929ZM46.454,63.582c0,.324.078.586.434.64.316.047.646.042.785-.326a13.338,13.338,0,0,0,.659-1.912c.134-.637-.543-.679-.905-.927-.2-.14-.363-.01-.42.235C46.827,62.056,46.639,62.819,46.454,63.582Zm10.505.588a3.114,3.114,0,0,0-.739,1.3c-.068.3.886,1.152,1.231,1.157a3.462,3.462,0,0,0,1.081-1.424A5.14,5.14,0,0,0,56.959,64.17Zm-2.7-1.9c-.226-.485-.78-.685-1.209-1.013-.124-.095-1.146,1.239-1.075,1.485.156.541.729.64,1.123.924C53.239,63.767,54.235,62.617,54.258,62.269Zm.676.484c-.17.005-1.067,1.148-.976,1.313a1.753,1.753,0,0,0,1.323.908c.531.016.676-.72.9-1.186C56.252,63.627,55.165,62.745,54.934,62.753Zm4.441,5.209a3.664,3.664,0,0,0,.942-1.566c-.116-.56-.634-.67-1.06-.858A3.374,3.374,0,0,0,58.3,67.03,2.175,2.175,0,0,0,59.375,67.962Zm3.1-7.578a3.3,3.3,0,0,0-1.1,1.466c.038.594.611.67.99.916.148.1,1.033-1.041.991-1.35C63.278,60.888,62.767,60.7,62.472,60.384Zm8.22,7.046c.018-.208-.93-1.147-1.115-1.087a1.249,1.249,0,0,0-.751,1.132c-.058.569.616.9,1.01.944C70.339,68.48,70.415,67.762,70.692,67.43Zm-6.706-5.776a6.2,6.2,0,0,0-.846,1.461c-.136.544.549.83.851.838.595.016.809-.663.9-1.121C64.985,62.323,64.347,62.126,63.986,61.654Zm3.23,4.68c.486,1.021,1.286,1.02,1.7-.488.092-.338-.524-.715-.821-.664C67.564,65.272,67.491,65.914,67.216,66.334Z"/><path class="b" d="M151.807,108.207a2.794,2.794,0,0,1-.609,1.286c-.536.732-1.061,1.476-1.643,2.17a.618.618,0,0,0,.052,1.007c.741.7,1.46,1.434,2.188,2.153.273.269.57.579.254.95-.346.407-.757.16-1.049-.107-.671-.613-1.324-1.249-1.94-1.917-.423-.457-.691-.654-1.136.02-.607.92-1.348,1.751-2.012,2.635-.277.368-.562.706-1.043.4s-.328-.717-.1-1.122a22.971,22.971,0,0,1,2.322-3.143.772.772,0,0,0,0-1.17,34.539,34.539,0,0,0-2.366-2.789c-.239-.23-.589-.511-.265-.853.276-.292.563.012.816.19a13.608,13.608,0,0,1,2.563,2.716c.418.511.578.23.807-.07,1.84-2.414,2.083-3.106,2.8-2.793A.518.518,0,0,1,151.807,108.207Z"/><path class="b" d="M140.669,110.419a1.752,1.752,0,0,1-.189.538c-2.065,2.679-3.35,6.633-4.244,6.13a.5.5,0,0,1-.159-.743c1.308-2.448.735-2.409,3.391-6.083C139.931,109.621,140.645,109.844,140.669,110.419Z"/><path class="b" d="M110.692,121.431c-1.034-.156-.1-1.294,1.9-4.583a.657.657,0,0,1,.88-.3c.407.173.25.529.13.809a19.207,19.207,0,0,1-2.43,3.787C111.064,121.29,110.839,121.347,110.692,121.431Z"/><path class="b" d="M144.267,112.937c.222.351-.125.805-.374.648-.844-.533-1.787-2.574-2.7-3.44-.2-.185-.389-.413-.205-.658.226-.3.469-.045.644.112A15.454,15.454,0,0,1,144.267,112.937Z"/><path class="c" d="M80.975,91.957c-.045-1.989-.253-3.971-.295-5.954-.774-36.454.329-29.95-.579-38.786-.217-2.112-2.166-1.274-3.92-1.276-38.352-.022-43.135.958-46.694.923a.961.961,0,0,0-1.1,1.015,43,43,0,0,0,.234,6.812c.858,7.016.83,15.334,1.531,26.607.474,7.616-.331,11.472.092,14.227.223,1.45,2.018,1,2.67,1.035,3.628.187,7.253.534,10.882.582,3.187.043,28.613,0,34.6-.474,1.589-.126,2.307-.7,2.393-1.823C80.853,93.884,81,92.93,80.975,91.957ZM71.8,71c-3.737.719-5.958-2.748-7.857-4.113-1.548-1.112-1.773-1.06-2.215.75-.221.907-.224,1.66-.592,1.975-2.6,2.226-.2,2.178.05,2.279a4.744,4.744,0,0,1,2.468,2.641,27.008,27.008,0,0,1,2.435,8.194c.43,3.979-1.133,4.018-2.273,4.558-3.535,1.676-6.648.291-10.877.041a32.693,32.693,0,0,1-3.779-.532c-2.74-.488-4.484,1.354-7.2-1.041-1.418-1.251-1.765-1.767-1.179-2.884-.518-.346-.626-.85-.179-1.51a31.843,31.843,0,0,1,2.5-3.335A86.028,86.028,0,0,0,48.222,70.8a.448.448,0,0,0-.021-.67A2.629,2.629,0,0,1,47.527,68c.095-1.055-.888-1.463-1.2-2.261-.057-.149-.254-.109-.377-.027-1.956,1.3-4.424,1.64-6.2,3.284a2.231,2.231,0,0,0-.673.728c-.366.818-1.054.841-1.568.1q-.389-.556-.737-1.139c-.386-.642-.2-1.391.506-2.153,1.866-2.026,4.26-3.634,4.586-4.182A14.559,14.559,0,0,1,49.244,56.2a2.576,2.576,0,0,1,2.121.006,16.355,16.355,0,0,0,4.807.365c2.365-.229,4.276.875,6.216,1.967,3.114,1.754,5.4,4.483,8.085,6.746.225.19.362.468.766.441,1.92-.126,2.913.62,2.913,3.155C74.171,70.365,73.775,70.617,71.8,71Z"/><path class="c" d="M172.737,40.031a10.15,10.15,0,0,1-2.126-.17c-.568-.151-.892.088-1.107.627-.954,2.393-.26,3.605-1.367,3.716-.735.074-.894-.556-.992-1.142-.2-1.2-.44-2.4-.581-3.608a1.722,1.722,0,0,0-.936-1.432,15.647,15.647,0,0,1-5.693-6.642c-5.033-10.3.243-21.15,9.77-22.564A21.588,21.588,0,0,1,186.5,13.07a12.07,12.07,0,0,1,4.853,7.587c1.081,6.262-2.056,14.959-9.794,17.655A31.538,31.538,0,0,1,172.737,40.031Zm-6.876-18.179c-.006,3,1.8,4.436,2.877,6.2a8.464,8.464,0,0,0,2.408,2.609,1.449,1.449,0,0,0,1.34.376c1.67-.585,3.44-.712,5.144-1.133,2.539-.628,5.351-2.291,5.549-5.567.15-2.467-.551-4.267-3.366-4.787-1.64-.3-3.052.47-4.043-.757-1.815-2.243-4.059-2.462-6.6-1.556A5.064,5.064,0,0,0,165.861,21.852Z"/><path class="c" d="M142.783,81.822c.44-3.255,4.595-8.906,9.892-3.231,1.515,1.622.707,5.093-.253,7.043-1.687,3.425-5.9,2.147-7.71.66A5.549,5.549,0,0,1,142.783,81.822Z"/><path class="c" d="M109.412,29.928c1.123.187,14.751.832,14.852.837,1.412.08.847.807.248,4.7-.227,1.481-.593,1.722-1.957,1.133-2.869-1.241-9.567-1.883-13.192-3.2a2.681,2.681,0,0,1-1.55-3.107C107.965,29.807,108.283,29.928,109.412,29.928Z"/><path class="c" d="M95.219,5.15c.969.4,1.944-.189,2.956-.174,1.033.014,1.325.431,1.172,1.459A46.445,46.445,0,0,1,96.2,16.479a1.548,1.548,0,0,1-2.748.651c-.349-.314-.277.257.856-11.123A.818.818,0,0,1,95.219,5.15Z"/><path class="c" d="M54.666,149.97c3.32.249,2.564,2.453,3.991,3.119.226.1.24.535.156.865a6.534,6.534,0,0,1-1.478,2.75c-1.524,1.718-5.333.63-6.311-1-.869-1.448.715-5.061,2.92-5.607C54.216,150.03,54.5,150,54.666,149.97Zm.2,1.361a3.157,3.157,0,0,0-2.581,2.744c-.022,1.017,1.438,2.189,2.734,2.2.8,0,1.9-1.506,1.91-2.626A2.421,2.421,0,0,0,54.861,151.331Z"/><path class="c" d="M13.148,57.421c0,2.625.2,3.561-.732,3.558-1.328-.005-.39-2.068-.887-6.487a15.444,15.444,0,0,1-.037-3.64c.064-.512.069-1.107.781-1.1s.785.576.726,1.107C12.747,53.1,13.28,55.316,13.148,57.421Z"/><path class="c" d="M12.67,38.737a68.446,68.446,0,0,1,.132,7.817c-.166,1.147-1.334.9-1.307-.088.058-2.213-.137-4.413-.291-6.617a13.5,13.5,0,0,1,.14-2.284c.05-.488.3-.94.84-.886C12.788,36.739,12.67,37.386,12.67,38.737Z"/><path d="M191.306,192.75c-1.074-2.347-2.223-4.669-3.128-7.082-1.328-3.536-2.262-9.938-5.616-13.693a6.457,6.457,0,0,1-1.218-2.532,2.685,2.685,0,0,1,.2-2.465c.674-1.137.99-2.478,1.564-3.682,2.234-4.678-.95-12.029-2.951-21.438-1.246-5.859.342-7.971-5.709-18.617-3.085-5.43-4.368-8.906-9.1-16.663a28.529,28.529,0,0,0-2.029-2.6c1.513.529,3.753,1.365,2.661-.128-1.713-2.343-3.222-3.467-2.876-6.428a13.63,13.63,0,0,0,9.082,5.514,14.2,14.2,0,0,0,2.017.312c1.229.06,1-.6.665-1.315-.129-.276-.385-.494-.51-.77-1.546-3.416-.882-5.8-.531-8.164,4.07,4.2,4.737,5.472,8.444,6.214.647.13.983-.252.827-.893s-3.254-5.859-3.986-10.738c-.077-.514-.069-1.04-.094-1.464,2.128.491,4.161.972,6.2,1.414.26.057.738-.013.809-.166a1.628,1.628,0,0,0-.066-.928c-.049-.22-4.062-4.533-6.233-8.514.965.151,2.516.721,5.04,1.347.9.224,1.364-.279.848-1.306s-2.434-1.645-3.394-5.4c-.83-3.246-1.719-6.479-2.51-9.735-1.281-5.274-2.726-5.776-3.772-7.526A17.571,17.571,0,0,0,167,47.755c-3.016-1.19-5.962-2.5-9.241-2.766a.98.98,0,0,1-.562-.3c-3.8-4.028-10.227-5.909-18.275-2.915-4.415,1.643-8.028,4.461-11.423,7.611A7.671,7.671,0,0,0,126.12,51.1c-.127.217-.3,1.762,1.211.908.227-.128.571-.366,1.278-.827-.033.922-4.539,6.055-.939,12.883a27.169,27.169,0,0,0,3.6,4.62.883.883,0,0,1,.245.942,7.54,7.54,0,0,1-1.989,3.034,4.124,4.124,0,0,0-.566,4.965,4.5,4.5,0,0,1,.223,4.332,13.313,13.313,0,0,1-8.371,6.861c-.558.179-1.2.091-1.767.251-1.1.309-.64,1.13-.011,1.254,1.686.331,2.169.2,7.68-.16a12.134,12.134,0,0,1-1.339,1.891,11.634,11.634,0,0,1-4.932,2.914c-.855.243-.683,1.177.148,1.153,2.1-.059,4.242.247,6.351-.679a3.119,3.119,0,0,1-.078.517,5.975,5.975,0,0,1-3.122,3.731c-.6.266-.957,1.322.225,1.3,5.308-.091,4.71-.293,7.6-1.138,3.982,7.4,3.078,5.968,4.082,6.555.24-1.065.176.171.279-4.638,2.618,2.322,5.258,5.222,8.085,5.168.272-.5.047-.825-.417-.974-2.409-.771-4.127-2.568-6.035-4.073a10.277,10.277,0,0,1-1.048-1.332,4.321,4.321,0,0,0-.783-.565c-.46.98-.231-.14-.875,3.966l-.263.083c-.655-1.509-1.389-2.99-1.932-4.537-.685-1.951-1.473.546-6.474.673a2.22,2.22,0,0,1-1.036-.095c1.221-1.5,1.649-1.464,2.475-4.573.2-.765-.055-.915-.85-.745-1.1.237-2.218.414-3.332.589a1.686,1.686,0,0,1-1.049-.185c2.266-1.39,4.267-2.431,5.08-5.342a3.3,3.3,0,0,0,.04-.72,2.517,2.517,0,0,0-.8.024,11.1,11.1,0,0,1-5.014.519,17.19,17.19,0,0,0,7.748-6.486c.069,1.346.414,7.156.554,8.829A4.379,4.379,0,0,0,133.526,96a46.648,46.648,0,0,0,6.056,1.355c4.89.71,5.145,4.159,6.4,8.156.123.394.1.636-.344.779-1.515.488-1.857.751-7.182,3.712a13.58,13.58,0,0,0-2.011-.648c-3.747-.542-4.932-.38-5.214-.8-2.339-3.484-2.456-4.154-2.987-4.938-.754-1.111-1.188-.747-1.724.357-3.683,7.574-.121,5.456-8.817,7.452-.211.048-.515.282-.528.45-.051.66.853,1,1.639,1.455-1.022.251-2.8.74-2.8.74a19.407,19.407,0,0,1-2.007-1.391c-.513-.435-1.039-.2-1.078.523-.09,1.658.252,2.648-.446,3.166-1.884,1.4-3.709,2.831-4.752,5.029a4.9,4.9,0,0,1-1.044,1.644c-2.689,2.326-3.181,5.469-3.077,8.693a13.984,13.984,0,0,0,3.193,8.38,2.92,2.92,0,0,0,2.451,1.49c.027.379.022.694.076,1,.513,2.909.908,5.872,2.356,8.5a22.871,22.871,0,0,0,6.895,8.024c3.388,2.341,6.969,3.963,11.252,2.906.98-.241,1.993-.346,3.088-.53a19.4,19.4,0,0,1,.222,3.032c-.292,3.877,2.908,2.5,2.322,5.15-.036.164,0,.343-.023.511-.149,1.144.091,2.421-1.275,3.11-.326.165.571-.945-10.886,18.288-1.232,2.069-.283,3.191,1.123.954.684-1.086,1.943-3.314,4.778-8.068,1.861-3.12,4.005-6.075,5.423-9.456a5.764,5.764,0,0,1,1.309-1.6c.661-.676,1.511-.306,2.28-.294,12.614.184,29.205.714,38.76-.153,1.781-.161,3.619-1.406,4.128-.665a17.046,17.046,0,0,1,2.062,3.327c4.7,12.207,1.94,8.336,6.807,17.871C190.587,194.761,192.07,194.421,191.306,192.75Zm-46.018-92.558a6.448,6.448,0,0,0-5.1-4.038c-1.885-.382-3.761-.832-5.613-1.348-2.462-.687-3-1.386-3.159-3.892-.8-12.283-.538-12.013-1.453-13.738-.818-1.542-.795-2.654.466-3.835a9.9,9.9,0,0,0,2.867-5.477c1.026-4.912,3.131-8.8,5.317-12.894.789,1.776,1.531,3.446,2.282,5.139A10.382,10.382,0,0,0,139.6,61.2c-.132.15-.446,1.429.761.842a13.1,13.1,0,0,0,1.406-.914c.752,1.04,1.157,1.624,1.429,1.969.541.687,1.529,1.184,1.385-.15-.266-2.46-.731-1.4,4.22,5.6.357.506,1.125.548,1.027-.523a14.322,14.322,0,0,1-.193-1.9c1.67,2.745,3.946,7.294,8.153,8.751.644.224,1.464-.217.544-.879-.714-.513-1.547-.877-2.205-1.447-3.276-2.837-2.381-2.218-6.546-9.5-.3-.524-1.061-.63-1.1.256a26.543,26.543,0,0,1-.184,3.066l-3.432-5.745a10.013,10.013,0,0,1,4.05.775c1.775.707.806-.473-.077-.793-4.178-1.514-4.34-.989-4.54-1.882-.149-.665-.952-.65-.947.125,0,.507-.214.667-.662.8-.482.144-.774.03-.947-.4-3.347-8.3-2.778-6.818-3.3-9.407-.3-1.5-.777-.371-.767-.158.093,2.19.448,3.358.075,3.967A47.165,47.165,0,0,0,131.889,67.7c-.7-.912-1.283-1.721-1.909-2.5a11.1,11.1,0,0,1,.025-13.4c.39-.459,1.543-1.871,1.179-2.353-.134-.177-.54-.2-.825-.194a5.171,5.171,0,0,0-1.038.291c5.766-5.42,13.974-9.425,21.646-7.233,3.263.932,4.784,3.593,7.915,3.921,2.7.283,5.094,1.46,7.565,2.48a16.683,16.683,0,0,1,8.454,7.464,14.321,14.321,0,0,0,1.287,1.8c2,2.525,2.093,6.385,4.682,15.145a34.466,34.466,0,0,0,1.916,4.327c-1.437-.4-3.167-.57-4.462-1.89-.519-.529-1.271.029-.843.7,5.393,8.511,6.844,8.876,7.018,10.234-1.455-.421-2.912-.835-4.364-1.265-1.4-.416-1.927-.819-2.342-.388-.076.079.037.34.066.52.861,5.288-.665,1.814,2.638,10.308.679,1.747,1.449,2.462.063,1.713a15.143,15.143,0,0,1-5.963-5.6c-.759-1.155-1.542-.454-1.716.312-.746,3.289-1.081,6.571.62,9.913-7.195-1.082-8.333-3.81-9.95-5.637-.372-.421-1.042-.793-1.282.269a7.252,7.252,0,0,0,1.081,5.453c.185.311.409.6.691,1.01a10.764,10.764,0,0,1-5.876-4.4,9.685,9.685,0,0,1-.559-1.587c-.428-1.034-.99-.663-1.275-.206-.4.646-.726,1.342-1.162,1.987.27-1.1.613-2.2.791-3.312.71-4.476.15-5.077,1.112-5.219a3.881,3.881,0,0,0,3.417-3.439,39.4,39.4,0,0,0,.556-5.657,2.3,2.3,0,0,0-1.5-2.519,3.034,3.034,0,0,0-2.773,1.65c-.264.482-.535.959-.92,1.646-.157-2.321-.406-4.37.192-6.408.524-1.787-.361-1.533-.6-.921-1.272,3.224-.905,4.121-.5,10.343a1.456,1.456,0,0,0,.034.339c.146.461.075,1.186.777,1.13s.519-.749.566-1.233c.265-2.7,0-2.989,1.5-4.141.85-.652,2.056-1.7,1.877.446-.152,1.831-.356,3.663-.677,5.471a2.659,2.659,0,0,1-2.187,2.14c-.728.179-1.364.157-1.269,1.439.354,4.772-4.08,12.25-3.178,13.017.462.393.732-.093.987-.436,1.2-1.607,2.4-3.212,3.568-4.777a12.063,12.063,0,0,0,5.046,4.946,3.671,3.671,0,0,0-.787.464,13.328,13.328,0,0,1-8.874,3.98c-1.641.1-2.147.752-3.847-.357a4.526,4.526,0,0,1-1.744-3.033A31.894,31.894,0,0,0,145.288,100.192Zm-25.809,13.575,3.523,2.3c-1.452.277-2.681.524-3.917.733-.362.061-.549-.246-2.264-2.2Zm-2.492,2.417a3.212,3.212,0,0,0,3.807,1.124c1.471-.452,3.005-.7,4.675-1.071-.371.954-.652,1.747-.988,2.517a2.443,2.443,0,0,0,.238,2.7c.985,1.3,1.865,2.679,2.778,4.008-1.251.1-2.538.2-3.825.29a1.9,1.9,0,0,0-1.909,1.493,13.457,13.457,0,0,1-1.02,2.069c-1.14-.4-2.261-.777-3.362-1.2a.8.8,0,0,1-.364-.552c-.318-1.966-.193-2.217-2.231-2.366-.208-.015-.432-.308-.581-.52a14.813,14.813,0,0,0-1.44-2.165c2.226-2.645,1.379-5.692,1.176-8.8A20.944,20.944,0,0,1,116.987,116.184Zm13.261,5.294c1.15-1.434,2.383-2.8,3.58-4.2l.285.076c.283,1.359.652,2.708.821,4.081a3.186,3.186,0,0,0,1.362,2.637c1.058.684,2,1.542,2.964,2.3-1.19,2.078-1.321,2.633-2.245,2.9-1.882.552-1.085,1.794-1.568,2.338-.828.933-1.693,1.833-2.541,2.748-.389.42-.68.547-1.153,0a9.724,9.724,0,0,0-1.876-1.572c-.6-.413-1.692.384-2.374.763l-3.259-2.541c.016-.059.014-.134.044-.15a2.144,2.144,0,0,0,1.026-3.009,7.61,7.61,0,0,1-.225-1.456c.99,0,3.141.143,3.352-.392.305-.774-.814-1.917-1.192-2.4.089-.094.13-.171.166-.169C128.884,123.536,129.485,122.428,130.248,121.478Zm-2.636.973c.754-.841,1.342-1.864,2.466-2.3C129.385,121.062,129.125,122.447,127.612,122.451Zm7.562-4.586a15.58,15.58,0,0,1,2.762-.487c1.751-.01,2.146-1.148,4.488-4.971.641,1.273,1.259,2.394,1.775,3.56.6,1.365,1.881,1.464,4.231,2.1-.944,1.578-5.7,5.883-8.421,7.67-1.181-.842-2.325-1.647-3.455-2.471C135.921,122.8,136.115,123.272,135.174,117.865Zm-3.456,17.381-1.83.977-1.818-2.076,1.231-.661Zm-8.363-4.762c-.527-.3-1.09-.61-1.7-.951a12.974,12.974,0,0,1,1.1-2.37c.281-.388.959-.49,1.491-.736C124.749,129.8,124.921,129.179,123.355,130.484ZM116.023,128l-.905-1.711C116,126.178,116.339,126.715,116.023,128Zm-2.943-11.066a4.413,4.413,0,0,1-.172,4.191,1.1,1.1,0,0,1-1.529.7,9.866,9.866,0,0,0-2.655-.05C109.711,119.708,111.494,118.445,113.08,116.931Zm-5.193,18.514c-.236-.334-.257-1.026-.881-.746-.14.063-.1.824.051,1.178.841,1.946.941,1.779,1.78,3.742.54,1.265.084,1.273-.64.507a12.843,12.843,0,0,1-2.5-13.924,5.676,5.676,0,0,1,3.929-3.5c2.422-.537,2.69,1.425,4.742,4.8.6.988,1.78,2.242,1.9,2.544.154.378-.015.668-.445.533-2.594-.817-2.282-1.247-3.345-2.822-.623-.924-.8-.253-.578.361,1.346,3.692,1.9,5.065,2.11,5.687.428,1.245-.231,1.495-.919,1.031-1.128-.76-2.2-1.6-3.325-2.37-.9-.611-1.279-.244-.868.765,2.269,5.555,2.991,6.229,1.494,5.34A19.086,19.086,0,0,1,107.887,135.445Zm72.4,30.685c-.181.423-6.623,1-7.082,1.026-3.77.184-29.935.752-33.422.522-1.621-.107-3.415-.063-4.686-1.438-.64-.692-.533-.916-.95-5.2,13.351-6.992,11.887-5.914,18.282-10.626,1.579-1.164,2.992-2.58,4.658-3.586,1.338-.809,4.828-1.049,5.484-1.219.3-.077,1.245-1-.43-.907-.437.024-1.205.093-2.672.205.508-.619-.5.255,4.695-3.905a1.466,1.466,0,0,0,.432-.4c.376-.759-.4-.855-.579-.774a5.5,5.5,0,0,0-1.137.742c-12.249,9.786-13.458,11.3-21.209,15.074-5.2,2.528-5.3,3.138-11.579,4.818a8.372,8.372,0,0,1-4.71.178c-13.58-4.31-13.6-14.965-15.4-21.105.368.1.657.189.95.261.793.2,1.236-.136,1.154-.953-.071-.7-.458-1.493-1.838-4.732,1,.669,1.827,1.238,2.676,1.765,1.264.787,2.76-.1,2.391-1.414-.311-1.113-.761-2.186-1.155-3.288a9.593,9.593,0,0,0,2.245.4c1.139-.066.919-1.087.991-1.81,4.843.774,8.241,3.926,11.659,7.118a18.775,18.775,0,0,0-4.93,5.691.943.943,0,0,0,.179,1.374c1.5,1.064,2.64-1.986,5.433-5.725.961-1.288,3.179-1.456,4.98-3.893,1.367-1.849,3.3-2.1,4.324-4.717,1.144-2.93,3.219-3.315,7.729-7.5,6.528-6.054,6.959-7.968,13.329-9.2,5.987-1.163,2.4-1.562,1.582-1.531-6.863.255-9.565,3.65-12.241,5.8-.6.48-1.457-.02-2.795-.362a2.618,2.618,0,0,1-1.993-1.52c-.424-1.019-.908-2.012-1.361-3.02-.4-.891-.905-.981-1.462-.193a18.64,18.64,0,0,0-1.73,2.723,3.7,3.7,0,0,1-3.308,2.216,12.416,12.416,0,0,1-1.351.137.831.831,0,0,1-.642-.326c-.286-.678-.684-.618-1.119-.226a40.3,40.3,0,0,0-2.9,2.97c-.945-.888-1.544-.28-2.136.418-.7.823-1.412,1.632-2.165,2.5-2.1-3.233-1.577-1.448-.413-6.1.111-.446-.126-.9-.634-.728-1.341.449-2.214-.413-3.2-1l-3.593-2.131c-.536-.318-.68-.447.12-.633a21.677,21.677,0,0,1,3.392-.659,2.982,2.982,0,0,0,2.907-2.1c.693-1.791,1.5-3.536,2.368-5.538,3.857,6.859,3.028,5.811,5.409,6.2,1.365.22,2.755.3,4.312.448-.858.874-1.66,1.654-2.418,2.474a2.1,2.1,0,0,0-.186,2.615c.125.216.273.773.626.56s.063-.84-.011-1.167c-.3-1.318-.191-1.493,1.015-2.154,3.089-1.693-1.336.29,10.253-5.734.269.364.526.666.732,1a3.262,3.262,0,0,0,3.475,1.633c2.384-.332,4.809-.48,7.006-1.63,1.661-.869,3.381-1.65,4.519-3.25a45.212,45.212,0,0,1,5.6,9.018c6.209,12.583,9.209,15.449,10.144,21.928,1.357,9.4-.743.2,3.951,19.609C183.211,160.756,182,162.159,180.289,166.13Z"/><path d="M138.784,67.113c.315-.89,1.455-1.511,1.922-.038a6.383,6.383,0,0,1-.291,4.173c-.229.624-1.378,1.192-1.736-.018A8.189,8.189,0,0,1,138.784,67.113Z"/><path d="M135.432,85.827a13.9,13.9,0,0,0,5.645.016c.637-.115,1.535.638.185.97a15.584,15.584,0,0,1-6.722.033C133.465,86.64,131.011,84.818,135.432,85.827Z"/><path d="M88.764,69.421c0,3.728.236,7.475-.065,11.178-.312,3.836-.168,7.654-.239,11.48-.692,37.646-.741,30.7-1.393,42.3-.124,2.216-.4,8.7-.479,9.716a2.722,2.722,0,0,1-2.219,1.945,59.884,59.884,0,0,1-6.018.642c-23.988.707-31.636.863-54.233-.5-1.024-.062-1.406-.449-1.42-1.305-.091-5.688-1.916-103.347-1.924-104.046a2.137,2.137,0,0,1,1.833-2.14c8.305-1.181,54.041-.964,61.023-.015a3.484,3.484,0,0,1,2.963,2.261c1.256,3.7,1.9,18.05,2.065,22,.09,2.158.016,4.322.016,6.484Zm-64.876,75.4c2.287.18,4.551.446,6.821.522,24.925.833,24.058.89,45.9.241,2.353-.07,4.7-.36,7.047-.61,1.408-.15,1.718-.562,1.785-1.943.139-2.87,1.025-17.465,1.191-21.9.534-14.243,1.727-54.582.32-68.741-.312-3.14-.622-6.281-1.015-9.411a3.121,3.121,0,0,0-3.2-3.131c-1.756-.15-3.515-.306-5.276-.366-4.435-.15-22.922-.5-27.729-.517-2.814-.009-5.629.107-8.444.137-5.834.063-13.506-.208-17.856.713-2.162.457-1.132,1.013-1.044,9.894C22.474,58.851,23.888,142.781,23.888,144.826Z"/><path d="M50.733,154.134c.053-2.244,2.166-4.816,4.052-4.638,6.253.59,5.028,8.772-.072,8.655C52.917,158.109,50.691,155.894,50.733,154.134Zm4.589-3.588c-2.153-.57-3.922,2.941-3.5,4.21.477,1.426,1.776,2.74,3.3,2.559A3.429,3.429,0,0,0,55.322,150.546Z"/><path d="M49.443,33.49a1.625,1.625,0,0,1-.881-.239,1.08,1.08,0,0,1-.35-.787c.039-.885,2.212-.713,9.452-.661a4.044,4.044,0,0,1,.427.012A1.124,1.124,0,0,1,59.1,33c.037.672-.546.676-1.046.676C54.311,33.673,54.445,33.778,49.443,33.49Z"/><path d="M27.945,81.78c.4-12.9.688-8.916-.337-33.994-.114-2.793,2.92.6,50.275-1.252.156-.006.336-.187.455-.145.233.081.609.252.618.4,1.307,23.457.743,48.325,1.055,49.067.656,1.557-.461.534-21.9,1.546-6.951.328-26.673-.183-28.715-.379a.973.973,0,0,1-.628-.69C27.556,80.878,28.28,81.787,27.945,81.78ZM78.873,95.761c.329-2.841-.537-46.5-.976-48.326-16.489.963-33.014.68-49.563.01.534,8.711.925,10.32.992,14.347.114,6.85-.516,11.88-.17,26.361.063,2.659.352,5.313.547,8.077,17.493,0,6.055.756,45.222-.228C76.25,95.969,77.572,95.843,78.873,95.761Z"/><path d="M77.1,102.6c1.494.257,3.4.31,2.412,1.562-1.2,1.509-2.545,1.692-2,3.571a5.513,5.513,0,0,1-.035,1.657,6.631,6.631,0,0,1-1.518-.711c-1.459-1.205-1.006-1.181-2.5.059-.4.332-.72,1.17-1.324.7a1.736,1.736,0,0,1-.309-1.582c.563-1.476-.161-2.165-1.314-2.8a1.443,1.443,0,0,1-.66-1.042c0-.224.561-.576.922-.666a15.243,15.243,0,0,1,2.025-.248c.451-.87.891-1.783,1.388-2.662.547-.97,1.007-.957,1.574-.017C76.177,101.132,76.612,101.822,77.1,102.6Z"/><path d="M50.254,106.3a7.559,7.559,0,0,1-1.233-.691,1.128,1.128,0,0,1-.429-.82c.034-.266.4-.708.6-.7,3.06.113,2.652-3.23,3.934-3.458a1.138,1.138,0,0,1,.885.447c1.393,1.891,1.007,2.663,2.3,2.62a2.731,2.731,0,0,1,1.885.465,3.8,3.8,0,0,1-.505.983,13.158,13.158,0,0,1-1.663,1.456c-.883.648-.1,1.307.172,2.339.169.641-.245,1.045-.847.82-.9-.335-1.766-.751-2.67-1.066-.826-.287-1.412.664-2.2,1.189-.248.166-.693.32-.886.206C48.854,109.645,49.873,107.319,50.254,106.3Z"/><path d="M42.756,109.131c-.63.546-1.511,1.5-2.059,1.223s-.366-1.533-.147-2.095c.687-1.761-2.148-1.537-1.787-3.014.213-.873,1.075-.82,1.763-.885.974-.093.718-.616,2.039-2.8.472-.781,1.052-.8,1.622-.105,1.317,1.61,1.564,2.507,2.948,2.662.756.085,1.01.773.44,1.224a3.482,3.482,0,0,0-1.3,3.949c.176.738-.788,1.3-1.649.965A12.322,12.322,0,0,1,42.756,109.131Z"/><path d="M63.443,107.942c-.654.775-1.35,1.765-1.79,1.606a.739.739,0,0,1-.3-.6,10.858,10.858,0,0,1,.186-1.772c.235-1.215-.788-1.31-1.785-2.183-.189-.165-.434-.542-.366-.67a1.285,1.285,0,0,1,.731-.585c1.664-.43,1.968.242,2.413-.853a22.547,22.547,0,0,1,.995-2.16c.355-.665.869-.66,1.3-.034a1.128,1.128,0,0,1,.211.367c.333,1.564,1.49,1.985,2.88,2.177a4.851,4.851,0,0,1,1.254.564,4.293,4.293,0,0,1-2.025,2.234,1.708,1.708,0,0,0-1.046,2.241,2.748,2.748,0,0,1-.131,1.082C64.694,109,65.382,109.423,63.443,107.942Z"/><path d="M33.444,108.764c-.866.758-1.7,1.714-2.407,1.469-.157-.054-.307-.564-.229-.792.507-1.5.232-2.6-1.359-3.231a1.077,1.077,0,0,1-.5-.862c.009-.217.432-.441.7-.618.732-.483,1.94.465,2.595-1.963.155-.574.719-1.917,1.3-1.905.242.005.561.343.7.611a18.009,18.009,0,0,1,1.032,2.332c.312.9.962.671,1.5.812,1.174.31,1.351.922.529,1.811a.571.571,0,0,1-.118.122,1.836,1.836,0,0,0-.875,2.7.833.833,0,0,1-.236.727.747.747,0,0,1-.682,0C34.694,109.592,34.038,109.143,33.444,108.764Z"/><path d="M62.7,65.957a16.917,16.917,0,0,1-1.959,4.6c-1.1,1.606,2.478.638,3.092,5.69.728,5.982,2.526,5.709,2.512,8.19a3.748,3.748,0,0,1-.692,1.528,2.367,2.367,0,0,1-.487.469A3.658,3.658,0,0,1,62.412,87.5a12.842,12.842,0,0,1-4.437-.475c-1.247-.468-4.446,1.183-7.578-.448a6.324,6.324,0,0,0-4.562-.421A4.186,4.186,0,0,1,41.111,84.3a6.039,6.039,0,0,0-.983-.939c-1.831-1.534-.257-1.1,7.584-12.083.1-.147.171-.5.087-.576-.845-.8-.184-1.882-.585-5.235a13.39,13.39,0,0,1-4.15,2.223,9.9,9.9,0,0,0-2.9,2.534c-1.136,1.253-1.3,1.336-2.7.314a2.9,2.9,0,0,1-.02-5.026c.768-.575,1.428-1.294,2.159-1.923,3.927-3.376,4.343-3.538,5.049-4.542a8.414,8.414,0,0,1,5.062-3.191c1.153-.308,2.051.391,3.11.4,1.757.02,3.511.214,5.268.309a8.318,8.318,0,0,1,5.283,2c2.48,2.154,4.631,3.074,6.686,5.073A9.43,9.43,0,0,0,71.318,64.9a7.382,7.382,0,0,1,2.626,3.463c.549,1.234-.23,2.006-.805,2.838a1.93,1.93,0,0,1-2.224.669c-4.311-1.109-3.948-1.735-5.786-3.662C64.42,67.465,63.624,66.805,62.7,65.957ZM48.469,69.75c7.954,0,3.347-.01,10.955.485a.976.976,0,0,0,.788-.323A27.179,27.179,0,0,0,61.4,67.018c.849-2.487,2.542-.936,4.453.883.936.892,1.639,2.058,3.01,2.415,1.18.306,2.852,1.11,3.578.351.42-.44.967-1.2.837-1.635a6.269,6.269,0,0,0-1.5-2.607,81.885,81.885,0,0,0-10.2-8.128,3.015,3.015,0,0,0-1.315-.549c-7.443-.89-8.121-.332-9.618-1.316a.534.534,0,0,0-.4-.046,9.3,9.3,0,0,0-4.682,2.772A31.392,31.392,0,0,1,40.4,63.943c-.946.811-1.841,1.682-2.793,2.485a1.9,1.9,0,0,0-.484,2.505,9.922,9.922,0,0,0,1.4,1.346c.819.716,1.592-2.762,5.418-3.806a8.956,8.956,0,0,0,2.539-1.582c.42-.3.768-.667,1.325-.328ZM40.43,82.065c.719.857,1.358,1.617,1.994,2.379a2.51,2.51,0,0,0,2.56.932,9.7,9.7,0,0,1,6.376.7c1.264.67,2.653.375,4.01.3a20.754,20.754,0,0,1,6.012.4,3.5,3.5,0,0,0,3.644-1.382c.331-.438.545-.766.405-1.246a6.12,6.12,0,0,0-.644-1.645,10.352,10.352,0,0,1-1.71-5.356,6.086,6.086,0,0,0-2.3-4.824c-.819-.631-2.133-.2-6.539-.577-7.378-.635-3.8-2.816-10.14,5.708C42.884,79.086,41.564,80.647,40.43,82.065Z"/><path d="M171.548,175.242a.25.25,0,0,0-.283.375c1.785,2.763,3.73,5.38,5.235,8.21s2.595,5.909,3.9,8.948a.25.25,0,0,0,.269.148C182.511,192.635,174.544,176.147,171.548,175.242Z"/><path d="M143.563,174.874c-2.288,5.714-4.918,11.305-5.258,17.553-.013.286.711.5.828.18.364-1,.747-4.756,1.521-7.31,1.174-3.873,2.381-5.972,3.675-10.172C144.436,174.774,143.683,174.578,143.563,174.874Z"/><path d="M152.621,175.212a.25.25,0,0,0-.369.255c1.948,13.32,1.766,12.608,2.045,12.648C155.526,188.268,153.991,175.976,152.621,175.212Z"/><path d="M50.534,72.226c-.381.036-.2-.085-3.353,6.859-.16.355.028.614.255.614.332,0,.114.265,3.373-6.848C51,72.44,50.791,72.205,50.534,72.226Z"/><path d="M58.706,73.349a.252.252,0,0,0-.339.083c-.084.166-.069.088,2.072,6.259a.219.219,0,0,0,.425-.091C60.685,77.712,59.294,73.682,58.706,73.349Z"/><path d="M53.592,72.885c-.064.126-.049-.078-.049,5.5,0,.509.523.432.523.019V73.148C54.066,72.686,53.705,72.658,53.592,72.885Z"/><path d="M94.953,90.057c.484-27.668-.918-59.615-.912-59.715A8.655,8.655,0,0,0,89.828,21.9c-3.086-1.942-6.65-2.432-10.19-2.712-10.532-.831-46.2.492-56.352,1.179-3.74.252-7.472.64-11.2,1.013a3.284,3.284,0,0,0-3.156,2.853,30.3,30.3,0,0,0-.478,5.5c.128,6.342,2.556,119.92,2.7,124.64.046,1.455.131,3.977,1.467,4.576,1.208.541,2.578.718,6.567,1.6,3.21.711.349.726,10.988.74,5.89.009,30.93-.207,37.559-.336a145.2,145.2,0,0,0,20.712-1.749c4.8-.788,5.349-6.358,5.332-11.306C93.61,98.762,94.707,104.091,94.953,90.057ZM78.659,20.218a29.141,29.141,0,0,1,9,1.756,9.491,9.491,0,0,1,4.06,2.978c-7.362-1.573-14.644-1.163-21.873-1.538-12.066-.626-22.738-1.263-36.589-.654-3.319.146-6.628.541-9.942.811-1.662.136-3.3-.172-5.446,1.11l-5.626-2.3C33.109,20.233,57.783,19.872,78.659,20.218ZM16.942,159.073a36,36,0,0,1-3.613-.976c-1.076-.4-1.265,1.1-2.2-45.062-.041-2.044.16-4.092.12-6.136-.056-2.927-.239-5.851-.355-8.777-.051-1.278-1.1-59.622-1.274-68.27a32.827,32.827,0,0,1,.473-6.252l6.064,2.475a7.386,7.386,0,0,0-1.931,4.233c-.611,5.933-.3,11.882-.274,17.825.014,2.788,1.525,101.878,1.5,106.229a6.016,6.016,0,0,0,1.671,4.348ZM93.456,87.7c-.134,8.521-.8,13.27-.953,23.963-.117,7.967-.417,38.812-.612,41.043a5.878,5.878,0,0,1-2.562,4.871,1.666,1.666,0,0,1-.612.261c-2.534.345-5.06.818-7.605.977-23.3,1.46-22.132,1-47.006,1.1-8.913.036-9.131.4-12.864-.193a5.154,5.154,0,0,1-4.418-4.908c-.55-18.528.019-18.727-.091-27.8-.093-7.567-1.34-85-1.33-94.219,0-.85.15-1.7.22-2.549.175-2.091,1.507-3.33,3.143-4.393,1.342-.872,2.879-.852,4.351-1,18.258-1.769,28.74-.732,44.747-.119,11.057.423,9.844-.017,21.453,1.209,2.47.262,3.047,1.475,3.26,3.808.443,4.852.377,9.713.406,14.578C93.066,57.809,93.858,62.178,93.456,87.7Z"/><circle cx="52.192" cy="28.992" r="1.179"/><circle cx="43.225" cy="32.935" r="1.179"/></svg>